<svg width="728" height="484" viewBox="0 0 728 484" fill="none" xmlns="http://www.w3.org/2000/svg">
<g id="organise 1" clip-path="url(#clip0)">
<path id="Vector" d="M718.704 1.13662e-08H111.704C109.392 0.00210248 107.175 0.921497 105.54 2.55637C103.905 4.19124 102.986 6.40798 102.984 8.72V420.04C102.986 422.352 103.905 424.569 105.54 426.204C107.175 427.839 109.392 428.758 111.704 428.76H718.704C719.964 428.76 721.21 428.487 722.355 427.958C723.5 427.43 724.516 426.659 725.334 425.7C725.403 425.625 725.467 425.545 725.524 425.46C726.044 424.824 726.466 424.112 726.774 423.35C727.213 422.302 727.437 421.176 727.434 420.04V8.72006C727.431 6.40641 726.51 4.18838 724.873 2.55331C723.236 0.918245 721.017 -0.000117969 718.704 1.13662e-08V1.13662e-08ZM724.944 420.04C724.945 421.257 724.586 422.446 723.914 423.46C723.316 424.352 722.505 425.081 721.554 425.58C720.673 426.035 719.695 426.272 718.704 426.27H111.704C110.052 426.268 108.468 425.611 107.301 424.443C106.133 423.275 105.476 421.692 105.474 420.04V8.72006C105.476 7.06837 106.133 5.4849 107.301 4.31697C108.468 3.14904 110.052 2.49202 111.704 2.49002H718.704C720.357 2.48981 721.943 3.14579 723.113 4.3139C724.283 5.48202 724.941 7.06675 724.944 8.72006V420.04Z" fill="#3F3D56"/>
<path id="Vector_2" d="M726.183 34.9492H104.227V37.442H726.183V34.9492Z" fill="#3F3D56"/>
<path id="Vector_3" d="M125.415 26.1747C129.546 26.1747 132.894 22.8264 132.894 18.6962C132.894 14.566 129.546 11.2178 125.415 11.2178C121.285 11.2178 117.937 14.566 117.937 18.6962C117.937 22.8264 121.285 26.1747 125.415 26.1747Z" fill="#3F3D56"/>
<path id="Vector_4" d="M146.916 26.1747C151.046 26.1747 154.394 22.8264 154.394 18.6962C154.394 14.566 151.046 11.2178 146.916 11.2178C142.786 11.2178 139.438 14.566 139.438 18.6962C139.438 22.8264 142.786 26.1747 146.916 26.1747Z" fill="#3F3D56"/>
<path id="Vector_5" d="M168.416 26.1747C172.547 26.1747 175.895 22.8264 175.895 18.6962C175.895 14.566 172.547 11.2178 168.416 11.2178C164.286 11.2178 160.938 14.566 160.938 18.6962C160.938 22.8264 164.286 26.1747 168.416 26.1747Z" fill="#3F3D56"/>
<path id="Vector_6" d="M571.303 92.6519H259.303C255.855 92.6519 252.549 91.2822 250.111 88.8443C247.673 86.4063 246.303 83.0997 246.303 79.6519C246.303 76.204 247.673 72.8974 250.111 70.4595C252.549 68.0215 255.855 66.6519 259.303 66.6519H571.303C574.751 66.6519 578.058 68.0215 580.496 70.4595C582.934 72.8974 584.303 76.204 584.303 79.6519C584.303 83.0997 582.934 86.4063 580.496 88.8443C578.058 91.2822 574.751 92.6519 571.303 92.6519ZM259.303 68.6519C256.386 68.6519 253.588 69.8108 251.525 71.8737C249.462 73.9366 248.303 76.7345 248.303 79.6519C248.303 82.5692 249.462 85.3672 251.525 87.4301C253.588 89.493 256.386 90.6519 259.303 90.6519H571.303C574.221 90.6519 577.019 89.493 579.081 87.4301C581.144 85.3672 582.303 82.5692 582.303 79.6519C582.303 76.7345 581.144 73.9366 579.081 71.8737C577.019 69.8108 574.221 68.6519 571.303 68.6519H259.303Z" fill="#3F3D56"/>
<path id="Vector_7" d="M261.91 172.152H233.91C231.788 172.152 229.753 171.309 228.253 169.809C226.753 168.308 225.91 166.274 225.91 164.152C225.91 162.03 226.753 159.995 228.253 158.495C229.753 156.995 231.788 156.152 233.91 156.152H261.91C264.031 156.152 266.066 156.995 267.567 158.495C269.067 159.995 269.91 162.03 269.91 164.152C269.91 166.274 269.067 168.308 267.567 169.809C266.066 171.309 264.031 172.152 261.91 172.152Z" fill="#CCCCCC"/>
<path id="Vector_8" d="M294.91 199.152H233.91C231.788 199.152 229.753 198.309 228.253 196.809C226.753 195.308 225.91 193.274 225.91 191.152C225.91 189.03 226.753 186.995 228.253 185.495C229.753 183.995 231.788 183.152 233.91 183.152H294.91C297.031 183.152 299.066 183.995 300.567 185.495C302.067 186.995 302.91 189.03 302.91 191.152C302.91 193.274 302.067 195.308 300.567 196.809C299.066 198.309 297.031 199.152 294.91 199.152Z" fill="#CCCCCC"/>
<path id="Vector_9" d="M266.91 290.152H238.91C236.788 290.152 234.753 289.309 233.253 287.809C231.753 286.308 230.91 284.274 230.91 282.152C230.91 280.03 231.753 277.995 233.253 276.495C234.753 274.995 236.788 274.152 238.91 274.152H266.91C269.031 274.152 271.066 274.995 272.567 276.495C274.067 277.995 274.91 280.03 274.91 282.152C274.91 284.274 274.067 286.308 272.567 287.809C271.066 289.309 269.031 290.152 266.91 290.152Z" fill="#CCCCCC"/>
<path id="Vector_10" d="M299.91 317.152H238.91C236.788 317.152 234.753 316.309 233.253 314.809C231.753 313.308 230.91 311.274 230.91 309.152C230.91 307.03 231.753 304.995 233.253 303.495C234.753 301.995 236.788 301.152 238.91 301.152H299.91C302.031 301.152 304.066 301.995 305.567 303.495C307.067 304.995 307.91 307.03 307.91 309.152C307.91 311.274 307.067 313.308 305.567 314.809C304.066 316.309 302.031 317.152 299.91 317.152Z" fill="#CCCCCC"/>
<path id="Vector_11" d="M450.91 287.152H422.91C420.788 287.152 418.753 286.309 417.253 284.809C415.753 283.308 414.91 281.274 414.91 279.152C414.91 277.03 415.753 274.995 417.253 273.495C418.753 271.995 420.788 271.152 422.91 271.152H450.91C453.031 271.152 455.066 271.995 456.566 273.495C458.067 274.995 458.91 277.03 458.91 279.152C458.91 281.274 458.067 283.308 456.566 284.809C455.066 286.309 453.031 287.152 450.91 287.152Z" fill="#CCCCCC"/>
<path id="Vector_12" d="M483.91 314.152H422.91C420.788 314.152 418.753 313.309 417.253 311.809C415.753 310.308 414.91 308.274 414.91 306.152C414.91 304.03 415.753 301.995 417.253 300.495C418.753 298.995 420.788 298.152 422.91 298.152H483.91C486.031 298.152 488.066 298.995 489.566 300.495C491.067 301.995 491.91 304.03 491.91 306.152C491.91 308.274 491.067 310.308 489.566 311.809C488.066 313.309 486.031 314.152 483.91 314.152Z" fill="#CCCCCC"/>
<path id="Vector_13" d="M447.91 177.152H419.91C417.788 177.152 415.753 176.309 414.253 174.809C412.753 173.308 411.91 171.274 411.91 169.152C411.91 167.03 412.753 164.995 414.253 163.495C415.753 161.995 417.788 161.152 419.91 161.152H447.91C450.031 161.152 452.066 161.995 453.566 163.495C455.067 164.995 455.91 167.03 455.91 169.152C455.91 171.274 455.067 173.308 453.566 174.809C452.066 176.309 450.031 177.152 447.91 177.152Z" fill="#CCCCCC"/>
<path id="Vector_14" d="M480.91 204.152H419.91C417.788 204.152 415.753 203.309 414.253 201.809C412.753 200.308 411.91 198.274 411.91 196.152C411.91 194.03 412.753 191.995 414.253 190.495C415.753 188.995 417.788 188.152 419.91 188.152H480.91C483.031 188.152 485.066 188.995 486.566 190.495C488.067 191.995 488.91 194.03 488.91 196.152C488.91 198.274 488.067 200.308 486.566 201.809C485.066 203.309 483.031 204.152 480.91 204.152Z" fill="#CCCCCC"/>
<path id="Vector_15" d="M634.91 171.152H606.91C604.788 171.152 602.753 170.309 601.253 168.809C599.753 167.308 598.91 165.274 598.91 163.152C598.91 161.03 599.753 158.995 601.253 157.495C602.753 155.995 604.788 155.152 606.91 155.152H634.91C637.031 155.152 639.066 155.995 640.566 157.495C642.067 158.995 642.91 161.03 642.91 163.152C642.91 165.274 642.067 167.308 640.566 168.809C639.066 170.309 637.031 171.152 634.91 171.152Z" fill="#CCCCCC"/>
<path id="Vector_16" d="M667.91 198.152H606.91C604.788 198.152 602.753 197.309 601.253 195.809C599.753 194.308 598.91 192.274 598.91 190.152C598.91 188.03 599.753 185.995 601.253 184.495C602.753 182.995 604.788 182.152 606.91 182.152H667.91C670.031 182.152 672.066 182.995 673.566 184.495C675.067 185.995 675.91 188.03 675.91 190.152C675.91 192.274 675.067 194.308 673.566 195.809C672.066 197.309 670.031 198.152 667.91 198.152Z" fill="#CCCCCC"/>
<path id="Vector_17" d="M184.508 207.652C201.076 207.652 214.508 194.22 214.508 177.652C214.508 161.083 201.076 147.652 184.508 147.652C167.939 147.652 154.508 161.083 154.508 177.652C154.508 194.22 167.939 207.652 184.508 207.652Z" fill="#2D9054"/>
<path id="Vector_18" d="M198.508 191.152H170.508C169.712 191.151 168.95 190.835 168.387 190.273C167.825 189.71 167.509 188.948 167.508 188.152V167.152C167.509 166.357 167.825 165.594 168.387 165.032C168.95 164.47 169.712 164.153 170.508 164.152H178.39C178.903 164.15 179.407 164.281 179.855 164.531C180.303 164.781 180.678 165.142 180.945 165.58L183.144 169.152H198.508C199.303 169.153 200.066 169.47 200.628 170.032C201.191 170.594 201.507 171.357 201.508 172.152V188.152C201.507 188.948 201.191 189.71 200.628 190.273C200.066 190.835 199.303 191.151 198.508 191.152V191.152ZM170.508 166.152C170.243 166.153 169.989 166.258 169.801 166.446C169.614 166.633 169.508 166.887 169.508 167.152V188.152C169.508 188.417 169.614 188.672 169.801 188.859C169.989 189.047 170.243 189.152 170.508 189.152H198.508C198.773 189.152 199.027 189.047 199.215 188.859C199.402 188.672 199.507 188.417 199.508 188.152V172.152C199.507 171.887 199.402 171.633 199.215 171.446C199.027 171.258 198.773 171.153 198.508 171.152H182.026L179.242 166.628C179.153 166.482 179.028 166.362 178.879 166.278C178.729 166.195 178.561 166.152 178.39 166.152H170.508Z" fill="white"/>
<path id="Vector_19" d="M368.508 212.652C385.076 212.652 398.508 199.22 398.508 182.652C398.508 166.083 385.076 152.652 368.508 152.652C351.939 152.652 338.508 166.083 338.508 182.652C338.508 199.22 351.939 212.652 368.508 212.652Z" fill="#2D9054"/>
<path id="Vector_20" d="M381.508 201.652H355.508C354.712 201.651 353.95 201.335 353.387 200.773C352.825 200.21 352.509 199.448 352.508 198.652V166.652C352.509 165.857 352.825 165.094 353.387 164.532C353.95 163.97 354.712 163.653 355.508 163.652H374.347C375.031 163.653 375.693 163.886 376.227 164.314L383.387 170.068C383.737 170.348 384.02 170.704 384.215 171.109C384.409 171.514 384.509 171.957 384.508 172.406V198.652C384.507 199.448 384.191 200.21 383.628 200.773C383.066 201.335 382.303 201.651 381.508 201.652V201.652ZM355.508 165.652C355.243 165.653 354.989 165.758 354.801 165.946C354.614 166.133 354.508 166.387 354.508 166.652V198.652C354.508 198.917 354.614 199.172 354.801 199.359C354.989 199.547 355.243 199.652 355.508 199.652H381.508C381.773 199.652 382.027 199.547 382.215 199.359C382.402 199.172 382.507 198.917 382.508 198.652V172.406C382.508 172.257 382.475 172.109 382.41 171.974C382.345 171.839 382.251 171.72 382.134 171.627L374.973 165.873C374.796 165.73 374.575 165.653 374.347 165.652H355.508Z" fill="white"/>
<path id="Vector_21" d="M376.508 177.652H360.508C360.243 177.652 359.988 177.547 359.801 177.359C359.613 177.172 359.508 176.918 359.508 176.652C359.508 176.387 359.613 176.133 359.801 175.945C359.988 175.758 360.243 175.652 360.508 175.652H376.508C376.773 175.652 377.027 175.758 377.215 175.945C377.402 176.133 377.508 176.387 377.508 176.652C377.508 176.918 377.402 177.172 377.215 177.359C377.027 177.547 376.773 177.652 376.508 177.652Z" fill="white"/>
<path id="Vector_22" d="M376.508 183.652H360.508C360.243 183.652 359.988 183.547 359.801 183.359C359.613 183.172 359.508 182.918 359.508 182.652C359.508 182.387 359.613 182.133 359.801 181.945C359.988 181.758 360.243 181.652 360.508 181.652H376.508C376.773 181.652 377.027 181.758 377.215 181.945C377.402 182.133 377.508 182.387 377.508 182.652C377.508 182.918 377.402 183.172 377.215 183.359C377.027 183.547 376.773 183.652 376.508 183.652Z" fill="white"/>
<path id="Vector_23" d="M376.508 189.652H360.508C360.243 189.652 359.988 189.547 359.801 189.359C359.613 189.172 359.508 188.918 359.508 188.652C359.508 188.387 359.613 188.133 359.801 187.945C359.988 187.758 360.243 187.652 360.508 187.652H376.508C376.773 187.652 377.027 187.758 377.215 187.945C377.402 188.133 377.508 188.387 377.508 188.652C377.508 188.918 377.402 189.172 377.215 189.359C377.027 189.547 376.773 189.652 376.508 189.652Z" fill="white"/>
<path id="Vector_24" d="M553.508 206.652C570.076 206.652 583.508 193.22 583.508 176.652C583.508 160.083 570.076 146.652 553.508 146.652C536.939 146.652 523.508 160.083 523.508 176.652C523.508 193.22 536.939 206.652 553.508 206.652Z" fill="#2D9054"/>
<path id="Vector_25" d="M567.507 187.652H539.507C538.712 187.651 537.949 187.335 537.387 186.773C536.825 186.21 536.508 185.448 536.507 184.652V168.652C536.508 167.857 536.825 167.094 537.387 166.532C537.949 165.97 538.712 165.653 539.507 165.652H567.507C568.303 165.653 569.065 165.97 569.628 166.532C570.19 167.094 570.506 167.857 570.507 168.652V184.652C570.506 185.448 570.19 186.21 569.628 186.773C569.065 187.335 568.303 187.651 567.507 187.652V187.652ZM539.507 167.652C539.242 167.653 538.988 167.758 538.801 167.946C538.613 168.133 538.508 168.387 538.507 168.652V184.652C538.508 184.917 538.613 185.172 538.801 185.359C538.988 185.547 539.242 185.652 539.507 185.652H567.507C567.772 185.652 568.027 185.547 568.214 185.359C568.402 185.172 568.507 184.917 568.507 184.652V168.652C568.507 168.387 568.402 168.133 568.214 167.946C568.027 167.758 567.772 167.653 567.507 167.652H539.507Z" fill="white"/>
<path id="Vector_26" d="M553.507 179.29C552.946 179.291 552.395 179.134 551.918 178.838L536.977 169.5C536.753 169.359 536.593 169.135 536.534 168.877C536.475 168.619 536.52 168.347 536.661 168.123C536.801 167.898 537.025 167.738 537.283 167.679C537.541 167.619 537.813 167.664 538.038 167.804L552.978 177.141C553.137 177.24 553.321 177.292 553.508 177.292C553.695 177.292 553.879 177.24 554.038 177.141L568.977 167.804C569.202 167.664 569.473 167.619 569.731 167.679C569.99 167.738 570.213 167.898 570.354 168.123C570.494 168.347 570.54 168.619 570.481 168.877C570.421 169.135 570.262 169.359 570.038 169.5L555.098 178.838C554.621 179.134 554.07 179.291 553.507 179.29V179.29Z" fill="white"/>
<path id="Vector_27" d="M184.508 325.652C201.076 325.652 214.508 312.22 214.508 295.652C214.508 279.083 201.076 265.652 184.508 265.652C167.939 265.652 154.508 279.083 154.508 295.652C154.508 312.22 167.939 325.652 184.508 325.652Z" fill="#2D9054"/>
<path id="Vector_28" d="M198.508 306.652H170.508C169.712 306.651 168.95 306.335 168.387 305.773C167.825 305.21 167.509 304.448 167.508 303.652V287.652C167.509 286.857 167.825 286.094 168.387 285.532C168.95 284.97 169.712 284.653 170.508 284.652H198.508C199.303 284.653 200.066 284.97 200.628 285.532C201.191 286.094 201.507 286.857 201.508 287.652V303.652C201.507 304.448 201.191 305.21 200.628 305.773C200.066 306.335 199.303 306.651 198.508 306.652ZM170.508 286.652C170.243 286.653 169.988 286.758 169.801 286.946C169.614 287.133 169.508 287.387 169.508 287.652V303.652C169.508 303.917 169.614 304.172 169.801 304.359C169.988 304.547 170.243 304.652 170.508 304.652H198.508C198.773 304.652 199.027 304.547 199.215 304.359C199.402 304.172 199.508 303.917 199.508 303.652V287.652C199.508 287.387 199.402 287.133 199.215 286.946C199.027 286.758 198.773 286.653 198.508 286.652H170.508Z" fill="white"/>
<path id="Vector_29" d="M194.07 306.652H173.946C173.595 306.652 173.25 306.56 172.946 306.385C172.642 306.209 172.389 305.957 172.214 305.653C172.038 305.348 171.946 305.003 171.946 304.652C171.946 304.301 172.038 303.956 172.214 303.652L178.276 293.152C178.451 292.848 178.704 292.596 179.008 292.42C179.312 292.245 179.657 292.152 180.008 292.152C180.359 292.152 180.704 292.245 181.008 292.42C181.312 292.596 181.564 292.848 181.74 293.152L185.655 299.934L187.923 296.005C188.099 295.701 188.351 295.448 188.655 295.273C188.959 295.097 189.304 295.005 189.655 295.005C190.006 295.005 190.351 295.097 190.655 295.273C190.959 295.448 191.212 295.701 191.387 296.005L195.802 303.652C195.978 303.956 196.07 304.301 196.07 304.652C196.07 305.004 195.978 305.348 195.802 305.653C195.627 305.957 195.374 306.209 195.07 306.385C194.766 306.56 194.421 306.652 194.07 306.652H194.07ZM194.07 304.652L189.655 297.005L186.521 302.434C186.433 302.586 186.307 302.712 186.155 302.8C186.003 302.887 185.831 302.934 185.655 302.934V302.934C185.479 302.934 185.307 302.887 185.155 302.8C185.003 302.712 184.877 302.586 184.789 302.434L180.008 294.152L173.946 304.652H194.07Z" fill="white"/>
<path id="Vector_30" d="M195.508 292.652C196.612 292.652 197.508 291.756 197.508 290.652C197.508 289.547 196.612 288.652 195.508 288.652C194.403 288.652 193.508 289.547 193.508 290.652C193.508 291.756 194.403 292.652 195.508 292.652Z" fill="white"/>
<path id="Vector_31" d="M370.508 322.652C387.076 322.652 400.508 309.22 400.508 292.652C400.508 276.083 387.076 262.652 370.508 262.652C353.939 262.652 340.508 276.083 340.508 292.652C340.508 309.22 353.939 322.652 370.508 322.652Z" fill="#2D9054"/>
<path id="Vector_32" d="M370.508 293.152C368.728 293.152 366.988 292.624 365.508 291.636C364.028 290.647 362.874 289.241 362.193 287.596C361.512 285.952 361.333 284.142 361.681 282.397C362.028 280.651 362.885 279.047 364.144 277.788C365.403 276.53 367.006 275.673 368.752 275.325C370.498 274.978 372.307 275.156 373.952 275.837C375.596 276.519 377.002 277.672 377.991 279.152C378.98 280.632 379.508 282.372 379.508 284.152C379.505 286.538 378.556 288.826 376.869 290.513C375.182 292.201 372.894 293.15 370.508 293.152V293.152ZM370.508 277.152C369.123 277.152 367.77 277.563 366.619 278.332C365.468 279.101 364.57 280.194 364.041 281.474C363.511 282.753 363.372 284.16 363.642 285.518C363.912 286.876 364.579 288.123 365.558 289.102C366.537 290.081 367.784 290.748 369.142 291.018C370.5 291.288 371.907 291.149 373.187 290.62C374.466 290.09 375.559 289.192 376.328 288.041C377.097 286.89 377.508 285.537 377.508 284.152C377.506 282.296 376.767 280.517 375.455 279.205C374.143 277.893 372.364 277.155 370.508 277.152Z" fill="white"/>
<path id="Vector_33" d="M378.508 310.152H362.508C361.58 310.151 360.69 309.782 360.034 309.126C359.378 308.47 359.009 307.58 359.008 306.652C359.008 303.602 360.219 300.677 362.376 298.521C364.533 296.364 367.458 295.152 370.508 295.152C373.558 295.152 376.483 296.364 378.64 298.521C380.796 300.677 382.008 303.602 382.008 306.652C382.007 307.58 381.638 308.47 380.981 309.126C380.325 309.782 379.436 310.151 378.508 310.152ZM370.508 297.152C367.989 297.155 365.574 298.157 363.793 299.938C362.012 301.719 361.011 304.134 361.008 306.652C361.008 307.05 361.166 307.431 361.448 307.713C361.729 307.994 362.11 308.152 362.508 308.152H378.508C378.906 308.152 379.287 307.994 379.568 307.713C379.849 307.431 380.007 307.05 380.008 306.652C380.005 304.134 379.003 301.719 377.222 299.938C375.441 298.157 373.026 297.155 370.508 297.152V297.152Z" fill="white"/>
<path id="Vector_34" d="M80.9371 471.198H93.1971L99.0291 423.91L80.9351 423.911L80.9371 471.198Z" fill="#FFB8B8"/>
<path id="Vector_35" d="M116.841 482.581L78.3101 482.583L78.3094 467.696L101.953 467.695C105.902 467.695 109.688 469.263 112.48 472.055C115.272 474.846 116.841 478.633 116.841 482.581V482.581L116.841 482.581Z" fill="black"/>
<path id="Vector_36" d="M34.9371 471.198H47.1971L53.0291 423.91L34.9351 423.911L34.9371 471.198Z" fill="#FFB8B8"/>
<path id="Vector_37" d="M70.8408 482.581L32.3101 482.583L32.3094 467.696L55.9533 467.695C59.9015 467.695 63.6881 469.263 66.4801 472.055C69.272 474.846 70.8406 478.633 70.8408 482.581V482.581L70.8408 482.581Z" fill="black"/>
<path id="Vector_38" d="M36.4342 330.36C37.755 329.51 38.8735 328.381 39.7109 327.053C40.5482 325.724 41.0841 324.228 41.2807 322.67C41.4773 321.112 41.3299 319.529 40.8489 318.034C40.3678 316.539 39.5648 315.168 38.4964 314.017L46.5689 199.459L23.3159 201.714L22.6772 313.901C20.8624 315.824 19.816 318.346 19.7364 320.989C19.6567 323.632 20.5493 326.212 22.245 328.241C23.9408 330.27 26.3218 331.606 28.937 331.996C31.5521 332.387 34.2197 331.805 36.4342 330.36H36.4342Z" fill="#FFB8B8"/>
<path id="Vector_39" d="M81.3025 447.381C80.2025 447.378 79.1416 446.973 78.3188 446.243C77.4961 445.513 76.968 444.507 76.8338 443.416L69.7076 383.813C69.6073 382.974 69.2067 382.199 68.5797 381.632C67.9528 381.065 67.1419 380.745 66.2968 380.729C65.4518 380.713 64.6296 381.004 63.9822 381.548C63.3348 382.091 62.9059 382.85 62.7747 383.685L53.7977 440.753C53.6352 441.814 53.097 442.781 52.2811 443.479C51.4652 444.176 50.4258 444.558 49.3524 444.553H34.8024C34.2086 444.553 33.6206 444.436 33.0724 444.207C32.5243 443.979 32.0267 443.645 31.6084 443.223C31.1901 442.802 30.8593 442.302 30.6352 441.752C30.411 441.202 30.2979 440.613 30.3024 440.019L37.2466 313.485C37.2492 312.408 37.6404 311.368 38.3483 310.556C39.0562 309.744 40.0333 309.214 41.1001 309.065L95.0938 301.227C95.7353 301.134 96.3894 301.181 97.0112 301.364C97.633 301.547 98.2079 301.863 98.6966 302.289C99.1853 302.714 99.5762 303.241 99.8426 303.832C100.109 304.423 100.245 305.064 100.24 305.713L99.2984 442.269C99.2904 443.42 98.8417 444.524 98.0445 445.354C97.2472 446.185 96.1622 446.678 95.0125 446.732L81.5161 447.376C81.4446 447.38 81.3734 447.381 81.3025 447.381Z" fill="#343434"/>
<path id="Vector_40" d="M53.3096 318.265C48.116 318.245 42.965 317.328 38.0837 315.554C37.2563 315.25 36.5376 314.707 36.0183 313.994C35.499 313.281 35.2023 312.431 35.1657 311.55C34.6999 301.213 31.9748 248.006 24.0412 215.551C22.4992 209.184 22.8763 202.503 25.1251 196.351C27.3739 190.198 31.3936 184.849 36.6777 180.977C37.1045 180.671 37.5395 180.37 37.9829 180.074C42.5714 177.019 47.8651 175.19 53.3605 174.759C58.8558 174.328 64.37 175.311 69.3784 177.613C74.5525 179.928 79.048 183.529 82.4374 188.072C85.8267 192.616 87.9971 197.951 88.7419 203.57L101.679 299.621C101.763 300.221 101.723 300.832 101.563 301.417C101.403 302.002 101.126 302.548 100.748 303.022C100.379 303.493 99.9182 303.885 99.3933 304.172C98.8684 304.46 98.2905 304.638 97.6948 304.695C93.2119 305.142 83.9143 306.88 72.0149 313.491C66.2926 316.661 59.851 318.305 53.3096 318.265V318.265Z" fill="#2D9054"/>
<path id="Vector_41" d="M37.4933 238.646L16.2026 232.874C15.0515 232.56 14.0717 231.803 13.4783 230.768C12.8848 229.733 12.7261 228.505 13.037 227.353L20.5216 199.748C21.3232 196.791 23.1913 194.236 25.7655 192.575C28.3397 190.913 31.4379 190.264 34.4625 190.752C37.4871 191.24 40.224 192.83 42.1454 195.217C44.0668 197.603 45.0367 200.616 44.868 203.675L43.1642 234.551C43.1273 235.221 42.9413 235.873 42.6198 236.462C42.2982 237.05 41.8492 237.559 41.3057 237.952C40.7621 238.344 40.1377 238.61 39.4781 238.731C38.8185 238.851 38.1404 238.822 37.4933 238.646V238.646Z" fill="#2D9054"/>
<path id="Vector_42" d="M61.1934 164.571C74.758 164.571 85.7544 153.575 85.7544 140.01C85.7544 126.446 74.758 115.449 61.1934 115.449C47.6287 115.449 36.6323 126.446 36.6323 140.01C36.6323 153.575 47.6287 164.571 61.1934 164.571Z" fill="#FFB8B8"/>
<path id="Vector_43" d="M150.197 188.264C150.074 188.804 149.994 189.352 149.958 189.905L107 214.687L96.5589 208.676L85.4277 223.248L107.765 239.168L156.773 200.506C158.772 201.245 160.948 201.359 163.013 200.831C165.078 200.304 166.934 199.16 168.333 197.553C169.732 195.945 170.608 193.949 170.846 191.831C171.083 189.713 170.67 187.573 169.661 185.695C168.653 183.818 167.097 182.292 165.2 181.32C163.303 180.349 161.155 179.978 159.042 180.257C156.929 180.536 154.951 181.451 153.371 182.882C151.791 184.312 150.684 186.19 150.197 188.264V188.264Z" fill="#FFB8B8"/>
<path id="Vector_44" d="M103.44 215.883L84.936 227.891C83.9344 228.539 82.7166 228.764 81.5497 228.516C80.3828 228.267 79.3621 227.566 78.7115 226.566L63.1415 202.574C61.4736 200.004 60.8162 196.907 61.2962 193.882C61.7762 190.856 63.3595 188.115 65.7408 186.187C68.1221 184.259 71.1328 183.282 74.1923 183.442C77.2518 183.603 80.1434 184.891 82.3096 187.058L104.173 208.926C104.647 209.4 105.009 209.974 105.233 210.606C105.457 211.238 105.536 211.912 105.466 212.579C105.396 213.246 105.178 213.889 104.827 214.46C104.477 215.032 104.003 215.518 103.44 215.883Z" fill="#2D9054"/>
<path id="Vector_45" d="M43.8129 159.441C48.3949 164.322 56.9042 161.702 57.5012 155.034C57.548 154.517 57.5446 153.996 57.4911 153.479C57.1828 150.525 55.4765 147.844 55.8852 144.725C55.9777 143.949 56.2669 143.209 56.7253 142.576C60.3765 137.687 68.9476 144.763 72.3935 140.337C74.5065 137.623 72.0227 133.35 73.6442 130.316C75.7842 126.313 82.123 128.288 86.098 126.095C90.5208 123.656 90.2563 116.87 87.3449 112.742C83.7944 107.709 77.5692 105.023 71.4215 104.636C65.2739 104.249 59.1686 105.91 53.4293 108.147C46.9082 110.689 40.4416 114.201 36.4286 119.935C31.5484 126.908 31.0787 136.283 33.5194 144.436C35.0041 149.397 40.0712 155.456 43.8129 159.441Z" fill="#2F2E41"/>
<path id="Vector_46" d="M251.218 484H1.78169C1.30916 484 0.855975 483.842 0.521844 483.561C0.187712 483.279 0 482.898 0 482.5C0 482.102 0.187712 481.721 0.521844 481.439C0.855975 481.158 1.30916 481 1.78169 481H251.218C251.691 481 252.144 481.158 252.478 481.439C252.812 481.721 253 482.102 253 482.5C253 482.898 252.812 483.279 252.478 483.561C252.144 483.842 251.691 484 251.218 484Z" fill="#3F3D56"/>
</g>
<defs>
<clipPath id="clip0">
<rect width="728" height="484" fill="white"/>
</clipPath>
</defs>
</svg>
